# xmcd
#
# Track frame offsets:
#	150
#	15500
#	28692
#	43287
#	62367
#	78195
#	98952
#	116672
#	127347
#	138392
#
# Disc length: 2195 seconds
#
# Revision: 1
# Processed by: cddbd v1.5.1PL0 Copyright (c) Steve Scherf et al.
# Submitted via: audiograbber 1.83.01
#
DISCID=8408910a
DTITLE=Barbara Mandrell - He Set My Life To Music
DYEAR=1900
DGENRE=Gospel
TTITLE0=What A Friend We Have In Jesus
TTITLE1=Swing Low Sweet Chariot - Swing Down Chariot
TTITLE2=I Turn To Him
TTITLE3=I Will Glory In The Cross
TTITLE4=Through It All
TTITLE5=He Set My Life To Music
TTITLE6=He Grew The Tree
TTITLE7=Out of The Mouths of Babes
TTITLE8=I'm Yours, Lord
TTITLE9=Then, Now And Forever
EXTD=
EXTT0=
EXTT1=
EXTT2=
EXTT3=
EXTT4=
EXTT5=
EXTT6=
EXTT7=
EXTT8=
EXTT9=
PLAYORDER=
